<!--
  Licensed to the Apache Software Foundation (ASF) under one or more
  contributor license agreements. See the NOTICE file distributed with this
  work for additional information regarding copyright ownership. The ASF
  licenses this file to You under the Apache License, Version 2.0.
-->
<svg xmlns="http://www.w3.org/2000/svg" viewBox="0 0 16 16">
  <defs>
    <linearGradient id="mark-blue" x1="6.16" y1="14.63" x2="6.16" y2="6.01" gradientUnits="userSpaceOnUse">
      <stop offset="0" stop-color="#229efa"/>
      <stop offset=".44" stop-color="#239cf8"/>
      <stop offset=".71" stop-color="#2d8ae8"/>
      <stop offset="1" stop-color="#5c319b"/>
    </linearGradient>
    <linearGradient id="mark-purple" x1="10.75" y1="8.2" x2="4.49" y2="1.94" gradientUnits="userSpaceOnUse">
      <stop offset="0" stop-color="#326b4e"/>
      <stop offset=".19" stop-color="#7554bc"/>
      <stop offset=".6" stop-color="#9848f5"/>
      <stop offset="1" stop-color="#9948f7"/>
    </linearGradient>
    <linearGradient id="mark-green" x1="15.34" y1="6.67" x2="7.88" y2="10.98" gradientUnits="userSpaceOnUse">
      <stop offset="0" stop-color="#33bc7a"/>
      <stop offset=".61" stop-color="#2fb37c"/>
      <stop offset=".82" stop-color="#219782"/>
      <stop offset="1" stop-color="#03598e"/>
    </linearGradient>
  </defs>
  <circle fill="#229efa" cx="12.02" cy="1.83" r="1.33"/>
  <circle fill="#9948f7" cx="12.02" cy="14.17" r="1.33"/>
  <circle fill="#33bc7a" cx="1.33" cy="8" r="1.33"/>
  <path fill="url(#mark-blue)" d="M7.91 10a2.65 2.65 0 0 1-.23-3.74A1.75 1.75 0 0 1 7.91 6 2.66 2.66 0 0 1 4.4 6a1.81 1.81 0 0 1 .24.24A2.65 2.65 0 0 1 4.4 10a2.62 2.62 0 0 0-.89 2 2.65 2.65 0 1 0 4.4-2z"/>
  <path fill="url(#mark-purple)" d="M12.19 5.49a2.78 2.78 0 0 1-.5.11A2.64 2.64 0 0 1 8.76 3.5a2.65 2.65 0 1 0-2.6 3.17A2.6 2.6 0 0 0 7 6.53a2.65 2.65 0 0 1 3.44 2 2.94 2.94 0 0 0 0-.51 2.65 2.65 0 0 1 1.75-2.53z"/>
  <path fill="url(#mark-green)" d="M13 5.35a2.64 2.64 0 0 0-2.59 2.12 3 3 0 0 1-.08.32 2.65 2.65 0 0 1-2.79 1.79 2.86 2.86 0 0 0 .37.41 2.63 2.63 0 0 1 .9 2 2.84 2.84 0 0 1-.05.51 2.64 2.64 0 0 1 3.12-2.06l.32.08a2.6 2.6 0 0 0 .84.14 2.65 2.65 0 1 0 0-5.3z"/>
</svg>
